<?xml version="1.0" encoding="UTF-8"?>
<svg id="Capa_1" data-name="Capa 1" xmlns="http://www.w3.org/2000/svg" viewBox="0 0 91.91 26.86">
  <defs>
    <style>
      .cls-1 {
        fill: #19233e;
        stroke-width: 0px;
      }
    </style>
  </defs>
  <path class="cls-1" d="M6.14,15.01s4.03-.69,4.03,2.88-4.03,3-4.03,3v-5.88ZM6.14,4.88s3.53-.75,3.53,2.38-3.53,2.61-3.53,2.61v-4.99ZM12.49,12.25s3.07-1.69,2.69-5.63c-.37-3.94-2.94-5.76-6.51-5.76H.54v24.28h9.32s6.07-.38,6.07-7.07c0-4.88-3.44-5.82-3.44-5.82"/>
  <path class="cls-1" d="M22.5,10.82v-5.98s3.67-.44,3.67,2.99-3.67,2.99-3.67,2.99M28.31,13.36s3.12-1.46,3.05-5.41c-.06-3.95-1.34-6.29-4.77-6.8-3.62-.53-9.65-.14-9.65-.14v24.18h5.56v-9.73s3.09-.51,3.22,1.78c.12,2.29.14,7.95.14,7.95h5.69l-.18-7.76c-.02-.78-.19-1.55-.53-2.25-.44-.89-1.21-1.83-2.54-1.83"/>
  <polygon class="cls-1" points="56.88 .89 53.81 5.95 50.74 .89 46.31 .89 46.31 25.19 51.24 25.19 51.24 12.24 53.81 16.46 53.81 16.46 53.81 16.46 53.81 16.46 53.81 16.46 56.38 12.24 56.38 25.19 61.33 25.19 61.33 .89 56.88 .89"/>
  <polygon class="cls-1" points="70.69 15.35 73.08 15.35 73.08 10.4 70.69 10.4 70.69 6.56 74.31 6.56 74.31 .89 63.26 .89 63.26 25.19 74.31 25.19 74.31 19.55 70.69 19.55 70.69 15.35"/>
  <polygon class="cls-1" points="85.14 8.63 80.46 .89 76.22 .89 76.22 25.19 81.79 25.19 81.79 17.82 86.22 25.19 90.69 25.19 90.69 .89 85.14 .89 85.14 8.63"/>
  <polygon class="cls-1" points="40.78 15.35 43.17 15.35 43.17 10.4 40.78 10.4 40.78 6.56 44.4 6.56 44.4 .89 33.35 .89 33.35 25.19 44.4 25.19 44.4 19.55 40.78 19.55 40.78 15.35"/>
</svg>